<?xml version="1.0" encoding="UTF-8" standalone="no"?>
<svg width="1096px" height="254px" viewBox="0 0 1096 254" version="1.1" xmlns="http://www.w3.org/2000/svg" xmlns:xlink="http://www.w3.org/1999/xlink">
    <!-- Generator: Sketch 48.2 (47327) - http://www.bohemiancoding.com/sketch -->
    <title>IMAGE PERFORMANCE</title>
    <desc>Created with Sketch.</desc>
    <defs></defs>
    <g id="Artboard" stroke="none" stroke-width="1" fill="none" fill-rule="evenodd" fill-opacity="0.950124547">
        <path d="M25.06,2.16 L25.06,117 L0.845,117 L0.845,2.16 L25.06,2.16 Z M153.385,2.16 L153.385,117 L131.49,117 L131.49,42.615 L109.305,117 L86.105,117 L64.935,42.615 L64.935,117 L42.75,117 L42.75,2.16 L75.085,2.16 L98.285,84.955 L122.5,2.16 L153.385,2.16 Z M230.96,89.595 L193.985,89.595 L185.865,117 L161.65,117 L198.19,2.16 L229.22,2.16 L263.295,117 L238.79,117 L230.96,89.595 Z M213.269997,23.7650156 C213.267033,23.7791971 211.239682,33.4812718 210.805,35.22 C210.37,37.54 201.815,64.075 200.365,70.02 L225.16,70.02 C223.855,64.365 216.025,37.54 215.445,35.075 C215.155205,33.3362291 213.272662,23.7785167 213.270003,23.7650143 L213.269997,23.7650156 Z M359.575,87.275 C359.575,101.195 359.72,116.565 359.72,117 L341.015,117 L339.855,108.01 C334.78,113.955 326.805,118.45 311.725,118.45 C295.195,118.45 283.015,112.07 276.055,101.195 C270.98,93.22 267.5,77.995 267.5,59.725 C267.5,43.775 268.95,30.58 275.62,19.415 C281.42,9.555 293.31,0.565 314.77,0.565 C337.39,0.565 349.28,9.12 354.645,20.575 C357.835,27.1 358.85,36.09 358.85,41.6 L335.505,41.6 C335.505,37.83 334.2,31.885 331.59,27.97 C328.69,23.765 323.035,21.01 315.64,21.01 C307.375,21.01 301.285,23.62 297.805,28.695 C294.035,34.495 292.15,43.63 292.15,60.16 C292.15,75.24 294.035,85.825 297.37,90.9 C300.56,95.975 306.94,99.165 315.93,99.165 C327.675,99.165 335.94,93.365 337.39,84.81 L337.39,70.89 L311,70.89 L311,50.88 L359.575,50.88 L359.575,87.275 Z M449.62,96.12 L449.62,117 L373.205,117 L373.205,2.16 L449.04,2.16 L449.04,23.185 L396.695,23.185 L396.695,48.995 L446.865,48.995 L446.865,70.02 L396.695,70.02 L396.695,96.12 L449.62,96.12 Z M80.015,146.875 C84.8,153.255 86.975,161.23 86.975,174.425 C86.975,187.04 84.945,195.595 80.45,201.105 C75.085,207.92 66.095,211.11 53.77,211.545 C50.58,211.69 24.77,211.4 24.77,211.4 L24.77,252 L0.845,252 L0.845,137.16 L52.32,137.16 C65.08,137.16 74.505,139.48 80.015,146.875 Z M61.455,185.59 C62.615,182.69 62.905,180.08 62.905,174.86 C62.905,169.495 62.325,165.435 61.31,163.405 C59.425,159.925 55.51,157.895 49.13,157.895 L24.77,157.895 L24.77,191.39 L48.55,191.39 C56.09,191.39 59.86,189.36 61.455,185.59 Z M176.005,231.12 L176.005,252 L99.59,252 L99.59,137.16 L175.425,137.16 L175.425,158.185 L123.08,158.185 L123.08,183.995 L173.25,183.995 L173.25,205.02 L123.08,205.02 L123.08,231.12 L176.005,231.12 Z M269.965,149.195 C273.01,154.705 274.75,161.375 274.75,171.09 C274.75,179.935 273.3,186.605 270.98,190.955 C268.08,196.61 263.44,200.09 258.51,201.105 L281.275,252 L255.175,252 L236.325,206.325 L213.125,206.325 L213.125,252 L189.78,252 L189.78,137.16 L244.01,137.16 C256.77,137.16 265.615,141.51 269.965,149.195 Z M249.81,182.545 C250.825,180.225 251.405,176.165 251.405,173.12 C251.405,169.64 250.825,165.435 250.1,163.55 C248.65,159.78 244.735,157.75 238.935,157.75 L213.27,157.75 L213.27,186.895 L240.095,186.895 C244.735,186.895 248.505,185.3 249.81,182.545 Z M366.825,137.16 L366.825,158.185 L315.64,158.185 L315.64,183.85 L363.925,183.85 L363.925,205.02 L315.64,205.02 L315.64,252 L291.86,252 L291.86,137.16 L366.825,137.16 Z M381.905,154.995 C388.72,143.685 400.755,135.71 422.215,135.71 C443.385,135.71 456,142.525 462.96,154.415 C467.89,162.68 470.355,177.47 470.355,193.855 C470.355,210.965 468.18,223.435 462.235,234.89 C456.29,246.49 443.24,253.595 422.215,253.595 C403.365,253.595 389.3,247.94 382.195,235.18 C376.685,225.32 374.075,210.385 374.075,194.145 C374.075,178.63 376.25,164.275 381.905,154.995 Z M404.815,226.19 C408.44,230.685 413.225,233.44 422.36,233.44 C432.075,233.44 436.86,230.105 440.34,225.755 C444.545,220.535 446.285,206.18 446.285,194.435 C446.285,183.27 444.835,170.51 440.92,164.42 C437.73,159.49 432.365,155.865 422.215,155.865 C412.065,155.865 407.57,158.91 403.655,164.42 C400.32,169.205 398.435,183.27 398.435,194.725 C398.435,206.47 400.465,220.68 404.815,226.19 Z M563.59,149.195 C566.635,154.705 568.375,161.375 568.375,171.09 C568.375,179.935 566.925,186.605 564.605,190.955 C561.705,196.61 557.065,200.09 552.135,201.105 L574.9,252 L548.8,252 L529.95,206.325 L506.75,206.325 L506.75,252 L483.405,252 L483.405,137.16 L537.635,137.16 C550.395,137.16 559.24,141.51 563.59,149.195 Z M543.435,182.545 C544.45,180.225 545.03,176.165 545.03,173.12 C545.03,169.64 544.45,165.435 543.725,163.55 C542.275,159.78 538.36,157.75 532.56,157.75 L506.895,157.75 L506.895,186.895 L533.72,186.895 C538.36,186.895 542.13,185.3 543.435,182.545 Z M696.12,137.16 L696.12,252 L674.225,252 L674.225,177.615 L652.04,252 L628.84,252 L607.67,177.615 L607.67,252 L585.485,252 L585.485,137.16 L617.82,137.16 L641.02,219.955 L665.235,137.16 L696.12,137.16 Z M773.695,224.595 L736.72,224.595 L728.6,252 L704.385,252 L740.925,137.16 L771.955,137.16 L806.03,252 L781.525,252 L773.695,224.595 Z M756.004993,158.765036 C756.000518,158.786448 753.97452,168.481922 753.54,170.22 C753.105,172.54 744.55,199.075 743.1,205.02 L767.895,205.02 C766.59,199.365 758.76,172.54 758.18,170.075 C757.89034,168.337041 756.00942,158.787443 756.005008,158.765039 L756.004993,158.765036 Z M899.555,137.16 L899.555,252 L874.76,252 L837.495,179.79 L837.495,252 L814.875,252 L814.875,137.16 L841.12,137.16 L877.08,207.63 L877.08,137.16 L899.555,137.16 Z M983.075,209.66 L1006.855,209.66 C1006.855,216.33 1005.55,225.755 1001.2,233.585 C994.24,246.2 981.915,253.595 960.89,253.595 C943.2,253.595 931.02,248.375 923.48,238.66 C916.23,229.235 912.315,213.14 912.315,194.29 C912.315,176.89 915.505,162.1 922.32,152.385 C930.005,141.655 942.04,135.71 961.18,135.71 C985.395,135.71 998.01,145.425 1002.94,159.2 C1005.695,166.885 1006.71,174.425 1006.71,180.37 L982.785,180.37 C982.785,176.165 981.625,168.915 979.015,164.71 C975.68,159.2 970.315,156.59 960.745,156.59 C951.9,156.59 946.245,159.78 942.62,164.71 C938.56,170.365 937.11,182.4 937.11,194.435 C937.11,208.935 939.14,219.955 943.055,225.61 C947.115,231.41 953.93,233.295 961.035,233.295 C969.88,233.295 975.535,230.25 978.58,225.32 C981.48,220.68 982.785,215.025 983.075,209.66 Z M1095.595,231.12 L1095.595,252 L1019.18,252 L1019.18,137.16 L1095.015,137.16 L1095.015,158.185 L1042.67,158.185 L1042.67,183.995 L1092.84,183.995 L1092.84,205.02 L1042.67,205.02 L1042.67,231.12 L1095.595,231.12 Z" id="IMAGE-PERFORMANCE" fill="#FFFFFF"></path>
    </g>
</svg>