<?xml version="1.0" encoding="UTF-8"?>
<svg width="619px" height="238px" viewBox="0 0 619 238" version="1.1" xmlns="http://www.w3.org/2000/svg" xmlns:xlink="http://www.w3.org/1999/xlink">
    <!-- Generator: Sketch 52.2 (67145) - http://www.bohemiancoding.com/sketch -->
    <title>Artboard</title>
    <desc>Created with Sketch.</desc>
    <g id="Artboard" stroke="none" stroke-width="1" fill="none" fill-rule="evenodd">
        <path d="M23.68,103 L3.712,103 L3.712,0.6 L23.552,0.6 L23.552,6.104 L9.344,6.104 L9.344,48.472 L21.632,48.472 L21.632,53.848 L9.344,53.848 L9.344,97.496 L23.68,97.496 L23.68,103 Z M50.966827,0.6 L40.982827,103 L34.198827,103 L24.086827,0.6 L29.846827,0.6 L37.654827,87.896 L45.334827,0.6 L50.966827,0.6 Z M75.309654,103 L55.341654,103 L55.341654,0.6 L75.181654,0.6 L75.181654,6.104 L60.973654,6.104 L60.973654,48.472 L73.261654,48.472 L73.261654,53.848 L60.973654,53.848 L60.973654,97.496 L75.309654,97.496 L75.309654,103 Z M100.420481,27.736 C100.420481,36.184 99.652481,42.456 98.756481,44.888 C97.732481,47.704 96.324481,50.52 94.532481,51.16 L102.724481,103 L96.580481,103 L89.156481,52.952 L84.932481,53.08 L84.932481,103 L79.428481,103 L79.428481,0.6 L88.900481,0.6 C95.812481,0.6 98.756481,5.208 99.652481,12.376 C100.164481,16.728 100.420481,20.056 100.420481,27.736 Z M94.404481,28.76 C94.404481,23 94.020481,14.808 93.892481,13.528 C93.508481,9.304 91.844481,6.232 88.900481,6.232 L85.060481,6.232 L85.060481,47.576 C85.060481,47.576 88.004481,47.576 89.284481,47.32 C91.588481,47.064 92.484481,45.272 92.996481,43.48 C93.892481,40.792 94.404481,33.112 94.404481,28.76 Z M131.419308,0.6 L120.027308,65.24 L120.027308,103 L113.883308,103 L113.883308,65.624 L103.131308,0.6 L108.891308,0.6 C108.891308,0.6 117.083308,50.392 117.211308,55.384 C117.211308,50.136 125.659308,0.6 125.659308,0.6 L131.419308,0.6 Z M157.426135,92.504 C156.786135,97.496 154.738135,103 146.674135,103 L135.538135,103 L135.538135,0.6 L145.266135,0.6 C152.818135,0.6 156.530135,4.696 157.426135,11.48 C157.938135,15.832 158.066135,41.688 158.066135,49.496 C158.066135,58.2 158.066135,87.128 157.426135,92.504 Z M151.922135,91.736 C152.178135,83.672 152.178135,53.208 152.178135,49.368 C152.178135,45.528 152.178135,18.776 152.050135,14.936 C151.922135,9.176 149.234135,5.976 145.778135,5.976 L141.170135,5.976 L141.170135,97.88 L147.186135,97.88 C149.618135,97.88 151.794135,96.216 151.922135,91.736 Z M168.200962,78.296 C168.072962,79.448 166.024962,103 166.024962,103 L160.520962,103 L171.016962,0.6 L178.184962,0.6 L186.120962,103 L180.616962,103 C180.616962,103 178.952962,79.448 178.952962,78.296 L168.200962,78.296 Z M178.824962,73.304 C178.824962,73.176 175.112962,29.784 174.856962,26.456 C174.472962,21.976 174.088962,9.176 174.088962,9.176 C174.088962,9.176 173.832962,21.976 173.320962,26.328 C172.936962,29.528 168.328962,73.176 168.328962,73.304 L178.824962,73.304 Z M213.023789,0.6 L201.631789,65.24 L201.631789,103 L195.487789,103 L195.487789,65.624 L184.735789,0.6 L190.495789,0.6 C190.495789,0.6 198.687789,50.392 198.815789,55.384 C198.815789,50.136 207.263789,0.6 207.263789,0.6 L213.023789,0.6 Z M9.472,218 L3.712,218 L3.712,115.6 L9.472,115.6 L9.472,218 Z M39.574827,218 L33.430827,218 L22.294827,139.792 L22.294827,218 L17.174827,218 L17.174827,115.6 L23.446827,115.6 L34.326827,192.016 L34.326827,115.6 L39.574827,115.6 L39.574827,218 Z M67.629654,120.976 L53.037654,120.976 L53.037654,163.472 L66.221654,163.472 L66.221654,168.976 L53.037654,168.976 L53.037654,218 L47.405654,218 L47.405654,115.6 L67.629654,115.6 L67.629654,120.976 Z M82.244481,115.216 C90.180481,115.216 94.020481,119.696 94.148481,131.216 C94.148481,136.08 94.276481,156.432 94.276481,166.544 C94.276481,177.552 94.276481,196.112 94.148481,203.024 C94.020481,213.52 90.564481,218.768 82.244481,218.768 C74.180481,218.768 70.724481,213.904 70.596481,202.896 L70.596481,131.344 C70.596481,120.848 74.308481,115.216 82.244481,115.216 Z M82.500481,213.008 C86.724481,213.008 88.004481,209.296 88.260481,204.688 C88.516481,200.336 88.516481,175.632 88.516481,166.544 C88.516481,159.248 88.516481,134.16 88.388481,129.936 C88.260481,123.792 86.852481,120.976 82.500481,120.976 C77.508481,120.976 76.868481,124.688 76.612481,130.064 C76.356481,134.416 76.484481,159.632 76.484481,167.056 C76.484481,175.12 76.356481,200.08 76.612481,204.688 C76.868481,209.68 78.020481,213.008 82.500481,213.008 Z M122.203308,142.736 C122.203308,151.184 121.435308,157.456 120.539308,159.888 C119.515308,162.704 118.107308,165.52 116.315308,166.16 L124.507308,218 L118.363308,218 L110.939308,167.952 L106.715308,168.08 L106.715308,218 L101.211308,218 L101.211308,115.6 L110.683308,115.6 C117.595308,115.6 120.539308,120.208 121.435308,127.376 C121.947308,131.728 122.203308,135.056 122.203308,142.736 Z M116.187308,143.76 C116.187308,138 115.803308,129.808 115.675308,128.528 C115.291308,124.304 113.627308,121.232 110.683308,121.232 L106.843308,121.232 L106.843308,162.576 C106.843308,162.576 109.787308,162.576 111.067308,162.32 C113.371308,162.064 114.267308,160.272 114.779308,158.48 C115.675308,155.792 116.187308,148.112 116.187308,143.76 Z M161.778135,218 L156.530135,218 L156.658135,140.432 L147.570135,218 L142.450135,218 L134.130135,140.56 L134.258135,218 L129.138135,218 L129.138135,115.6 L135.922135,115.6 L145.266135,199.184 L154.994135,115.6 L161.778135,115.6 L161.778135,218 Z M173.448962,193.296 C173.320962,194.448 171.272962,218 171.272962,218 L165.768962,218 L176.264962,115.6 L183.432962,115.6 L191.368962,218 L185.864962,218 C185.864962,218 184.200962,194.448 184.200962,193.296 L173.448962,193.296 Z M184.072962,188.304 C184.072962,188.176 180.360962,144.784 180.104962,141.456 C179.720962,136.976 179.336962,124.176 179.336962,124.176 C179.336962,124.176 179.080962,136.976 178.568962,141.328 C178.184962,144.528 173.576962,188.176 173.576962,188.304 L184.072962,188.304 Z M213.663789,121.104 L204.831789,121.104 L204.831789,218 L199.199789,218 L199.199789,121.104 L190.495789,121.104 L190.495789,115.6 L213.663789,115.6 L213.663789,121.104 Z M223.798616,218 L218.038616,218 L218.038616,115.6 L223.798616,115.6 L223.798616,218 Z M242.381443,115.216 C250.317443,115.216 254.157443,119.696 254.285443,131.216 C254.285443,136.08 254.413443,156.432 254.413443,166.544 C254.413443,177.552 254.413443,196.112 254.285443,203.024 C254.157443,213.52 250.701443,218.768 242.381443,218.768 C234.317443,218.768 230.861443,213.904 230.733443,202.896 L230.733443,131.344 C230.733443,120.848 234.445443,115.216 242.381443,115.216 Z M242.637443,213.008 C246.861443,213.008 248.141443,209.296 248.397443,204.688 C248.653443,200.336 248.653443,175.632 248.653443,166.544 C248.653443,159.248 248.653443,134.16 248.525443,129.936 C248.397443,123.792 246.989443,120.976 242.637443,120.976 C237.645443,120.976 237.005443,124.688 236.749443,130.064 C236.493443,134.416 236.621443,159.632 236.621443,167.056 C236.621443,175.12 236.493443,200.08 236.749443,204.688 C237.005443,209.68 238.157443,213.008 242.637443,213.008 Z M283.74827,218 L277.60427,218 L266.46827,139.792 L266.46827,218 L261.34827,218 L261.34827,115.6 L267.62027,115.6 L278.50027,192.016 L278.50027,115.6 L283.74827,115.6 L283.74827,218 Z M309.649924,193.296 C309.521924,194.448 307.473924,218 307.473924,218 L301.969924,218 L312.465924,115.6 L319.633924,115.6 L327.569924,218 L322.065924,218 C322.065924,218 320.401924,194.448 320.401924,193.296 L309.649924,193.296 Z M315.537923,124.176064 C315.537264,124.208959 315.281265,136.981605 314.769924,141.328 C314.385924,144.528 309.777924,188.176 309.777924,188.304 L320.273924,188.304 C320.273924,188.176 316.561924,144.784 316.305924,141.456 C315.922416,136.981742 315.538908,124.208797 315.537926,124.176063 L315.537923,124.176064 Z M352.680751,142.736 C352.680751,151.184 351.912751,157.456 351.016751,159.888 C349.992751,162.704 348.584751,165.52 346.792751,166.16 L354.984751,218 L348.840751,218 L341.416751,167.952 L337.192751,168.08 L337.192751,218 L331.688751,218 L331.688751,115.6 L341.160751,115.6 C348.072751,115.6 351.016751,120.208 351.912751,127.376 C352.424751,131.728 352.680751,135.056 352.680751,142.736 Z M346.664751,143.76 C346.664751,138 346.280751,129.808 346.152751,128.528 C345.768751,124.304 344.104751,121.232 341.160751,121.232 L337.320751,121.232 L337.320751,162.576 C337.320751,162.576 340.264751,162.576 341.544751,162.32 C343.848751,162.064 344.744751,160.272 345.256751,158.48 C346.152751,155.792 346.664751,148.112 346.664751,143.76 Z M382.527578,186.128 L382.527578,203.28 C382.527578,213.648 378.047578,218.64 370.751578,218.64 C362.943578,218.64 359.359578,213.776 359.103578,205.072 C358.847578,195.984 358.847578,175.376 358.847578,165.904 L358.847578,130.32 C358.975578,118.416 363.583578,115.216 370.623578,115.216 C378.303578,115.216 382.143578,119.952 382.399578,129.296 C382.527578,135.44 382.527578,141.84 382.527578,147.6 L376.511578,147.6 C376.511578,143.376 376.639578,131.984 376.383578,127.76 C376.127578,123.152 373.951578,121.232 370.495578,121.232 C366.911578,121.232 364.735578,124.048 364.735578,128.784 C364.607578,133.264 364.735578,158.352 364.735578,166.032 C364.735578,174.224 364.863578,200.208 364.991578,203.024 C365.375578,210.832 367.423578,212.88 370.879578,212.88 C373.951578,212.88 376.767578,211.344 376.767578,202.384 L376.767578,186.128 L382.527578,186.128 Z M410.582405,218 L404.950405,218 L404.950405,168.976 L393.814405,168.976 L393.814405,218 L388.182405,218 L388.182405,115.6 L393.814405,115.6 L393.814405,163.6 L404.950405,163.6 L404.950405,115.6 L410.582405,115.6 L410.582405,218 Z M424.173232,218 L418.413232,218 L418.413232,115.6 L424.173232,115.6 L424.173232,218 Z M451.588059,121.104 L442.756059,121.104 L442.756059,218 L437.124059,218 L437.124059,121.104 L428.420059,121.104 L428.420059,115.6 L451.588059,115.6 L451.588059,121.104 Z M475.930886,218 L455.962886,218 L455.962886,115.6 L475.802886,115.6 L475.802886,121.104 L461.594886,121.104 L461.594886,163.472 L473.882886,163.472 L473.882886,168.848 L461.594886,168.848 L461.594886,212.496 L475.930886,212.496 L475.930886,218 Z M502.961713,186.128 L502.961713,203.28 C502.961713,213.648 498.481713,218.64 491.185713,218.64 C483.377713,218.64 479.793713,213.776 479.537713,205.072 C479.281713,195.984 479.281713,175.376 479.281713,165.904 L479.281713,130.32 C479.409713,118.416 484.017713,115.216 491.057713,115.216 C498.737713,115.216 502.577713,119.952 502.833713,129.296 C502.961713,135.44 502.961713,141.84 502.961713,147.6 L496.945713,147.6 C496.945713,143.376 497.073713,131.984 496.817713,127.76 C496.561713,123.152 494.385713,121.232 490.929713,121.232 C487.345713,121.232 485.169713,124.048 485.169713,128.784 C485.041713,133.264 485.169713,158.352 485.169713,166.032 C485.169713,174.224 485.297713,200.208 485.425713,203.024 C485.809713,210.832 487.857713,212.88 491.313713,212.88 C494.385713,212.88 497.201713,211.344 497.201713,202.384 L497.201713,186.128 L502.961713,186.128 Z M528.32854,121.104 L519.49654,121.104 L519.49654,218 L513.86454,218 L513.86454,121.104 L505.16054,121.104 L505.16054,115.6 L528.32854,115.6 L528.32854,121.104 Z M554.463367,206.48 C554.463367,214.032 551.007367,218.64 543.583367,218.64 C536.159367,218.64 532.063367,214.544 532.063367,206.48 L532.063367,115.6 L537.695367,115.6 L537.695367,204.944 C537.695367,211.216 539.615367,213.136 543.455367,213.136 C547.423367,213.136 548.831367,210.832 548.831367,205.072 L548.831367,115.6 L554.463367,115.6 L554.463367,206.48 Z M583.030194,142.736 C583.030194,151.184 582.262194,157.456 581.366194,159.888 C580.342194,162.704 578.934194,165.52 577.142194,166.16 L585.334194,218 L579.190194,218 L571.766194,167.952 L567.542194,168.08 L567.542194,218 L562.038194,218 L562.038194,115.6 L571.510194,115.6 C578.422194,115.6 581.366194,120.208 582.262194,127.376 C582.774194,131.728 583.030194,135.056 583.030194,142.736 Z M577.014194,143.76 C577.014194,138 576.630194,129.808 576.502194,128.528 C576.118194,124.304 574.454194,121.232 571.510194,121.232 L567.670194,121.232 L567.670194,162.576 C567.670194,162.576 570.614194,162.576 571.894194,162.32 C574.198194,162.064 575.094194,160.272 575.606194,158.48 C576.502194,155.792 577.014194,148.112 577.014194,143.76 Z M609.933021,218 L589.965021,218 L589.965021,115.6 L609.805021,115.6 L609.805021,121.104 L595.597021,121.104 L595.597021,163.472 L607.885021,163.472 L607.885021,168.848 L595.597021,168.848 L595.597021,212.496 L609.933021,212.496 L609.933021,218 Z" id="EVERYDAY-INFORMATION" fill="#FFFFFF"></path>
    </g>
</svg>