<?xml version="1.0" encoding="UTF-8" standalone="no"?>
<svg width="362px" height="30px" viewBox="0 0 362 30" version="1.1" xmlns="http://www.w3.org/2000/svg" xmlns:xlink="http://www.w3.org/1999/xlink">
    <!-- Generator: Sketch 48.2 (47327) - http://www.bohemiancoding.com/sketch -->
    <title>Artboard</title>
    <desc>Created with Sketch.</desc>
    <defs></defs>
    <g id="Page-1" stroke="none" stroke-width="1" fill="none" fill-rule="evenodd" fill-opacity="0.922497736">
        <g id="Artboard" fill="#471B1B">
            <path d="M18.172,22.196 L8.992,22.196 L6.976,29 L0.964,29 L10.036,0.488 L17.74,0.488 L26.2,29 L20.116,29 L18.172,22.196 Z M13.7799837,5.85207795 C13.7766925,5.86782764 13.2756452,8.26541931 13.168,8.696 C13.06,9.272 10.936,15.86 10.576,17.336 L16.732,17.336 C16.408,15.932 14.464,9.272 14.32,8.66 C14.248229,8.22937373 13.7829724,5.86709137 13.7800142,5.85207194 L13.7799837,5.85207795 Z M50.896,21.26 C50.896,23.42 50.212,25.508 49.204,26.624 C47.836,28.1 46.072,29 43.12,29 L28.396,29 L28.396,0.488 L42.22,0.488 C45.1,0.488 46.972,1.316 48.232,2.684 C49.24,3.764 49.816,5.492 49.816,7.472 C49.816,9.452 49.384,11.324 48.304,12.62 C47.584,13.484 46.54,14.024 45.46,14.204 C47.008,14.348 48.556,15.14 49.564,16.328 C50.5,17.408 50.896,19.28 50.896,21.26 Z M42.868,11.684 C43.372,11.108 43.696,10.064 43.696,8.768 C43.696,7.688 43.372,6.644 42.868,6.104 C42.364,5.564 41.428,5.276 40.384,5.276 L34.192,5.276 L34.192,12.476 L40.888,12.476 C41.608,12.476 42.364,12.26 42.868,11.684 Z M41.356,24.176 C42.4,24.176 43.3,23.996 43.876,23.348 C44.452,22.736 44.704,21.728 44.704,20.756 C44.704,19.676 44.416,18.596 43.84,17.948 C43.264,17.336 42.4,17.084 41.428,17.084 L34.192,17.084 L34.192,24.176 L41.356,24.176 Z M54.964,4.916 C56.656,2.108 59.644,0.128 64.972,0.128 C70.228,0.128 73.36,1.82 75.088,4.772 C76.312,6.824 76.924,10.496 76.924,14.564 C76.924,18.812 76.384,21.908 74.908,24.752 C73.432,27.632 70.192,29.396 64.972,29.396 C60.292,29.396 56.8,27.992 55.036,24.824 C53.668,22.376 53.02,18.668 53.02,14.636 C53.02,10.784 53.56,7.22 54.964,4.916 Z M60.652,22.592 C61.552,23.708 62.74,24.392 65.008,24.392 C67.42,24.392 68.608,23.564 69.472,22.484 C70.516,21.188 70.948,17.624 70.948,14.708 C70.948,11.936 70.588,8.768 69.616,7.256 C68.824,6.032 67.492,5.132 64.972,5.132 C62.452,5.132 61.336,5.888 60.364,7.256 C59.536,8.444 59.068,11.936 59.068,14.78 C59.068,17.696 59.572,21.224 60.652,22.592 Z M101.44,0.488 L101.44,20.972 C101.44,26.516 97.12,29.36 90.64,29.36 C84.304,29.36 79.84,26.732 79.84,20.72 L79.84,0.488 L85.744,0.488 L85.744,20.216 C85.744,22.844 87.436,24.392 90.712,24.392 C93.664,24.392 95.536,22.88 95.536,20.252 L95.536,0.488 L101.44,0.488 Z M124.948,0.488 L124.948,5.672 L117.208,5.672 L117.208,29 L111.232,29 L111.232,5.672 L103.492,5.672 L103.492,0.488 L124.948,0.488 Z M155.476,0.488 L155.476,5.672 L147.736,5.672 L147.736,29 L141.76,29 L141.76,5.672 L134.02,5.672 L134.02,0.488 L155.476,0.488 Z M179.236,0.488 L179.236,29 L173.332,29 L173.332,17.408 L163.684,17.408 L163.684,29 L157.816,29 L157.816,0.488 L163.684,0.488 L163.684,12.116 L173.332,12.116 L173.332,0.488 L179.236,0.488 Z M202.564,23.816 L202.564,29 L183.592,29 L183.592,0.488 L202.42,0.488 L202.42,5.708 L189.424,5.708 L189.424,12.116 L201.88,12.116 L201.88,17.336 L189.424,17.336 L189.424,23.816 L202.564,23.816 Z M229.744,22.196 L220.564,22.196 L218.548,29 L212.536,29 L221.608,0.488 L229.312,0.488 L237.772,29 L231.688,29 L229.744,22.196 Z M225.351983,5.85208118 C225.348625,5.86815201 224.847638,8.26544844 224.74,8.696 C224.632,9.272 222.508,15.86 222.148,17.336 L228.304,17.336 C227.98,15.932 226.036,9.272 225.892,8.66 C225.820234,8.22940192 225.355033,5.86740067 225.352015,5.85207492 L225.351983,5.85208118 Z M261.244,0.488 L261.244,20.972 C261.244,26.516 256.924,29.36 250.444,29.36 C244.108,29.36 239.644,26.732 239.644,20.72 L239.644,0.488 L245.548,0.488 L245.548,20.216 C245.548,22.844 247.24,24.392 250.516,24.392 C253.468,24.392 255.34,22.88 255.34,20.252 L255.34,0.488 L261.244,0.488 Z M284.752,0.488 L284.752,5.672 L277.012,5.672 L277.012,29 L271.036,29 L271.036,5.672 L263.296,5.672 L263.296,0.488 L284.752,0.488 Z M308.512,0.488 L308.512,29 L302.608,29 L302.608,17.408 L292.96,17.408 L292.96,29 L287.092,29 L287.092,0.488 L292.96,0.488 L292.96,12.116 L302.608,12.116 L302.608,0.488 L308.512,0.488 Z M313.66,4.916 C315.352,2.108 318.34,0.128 323.668,0.128 C328.924,0.128 332.056,1.82 333.784,4.772 C335.008,6.824 335.62,10.496 335.62,14.564 C335.62,18.812 335.08,21.908 333.604,24.752 C332.128,27.632 328.888,29.396 323.668,29.396 C318.988,29.396 315.496,27.992 313.732,24.824 C312.364,22.376 311.716,18.668 311.716,14.636 C311.716,10.784 312.256,7.22 313.66,4.916 Z M319.348,22.592 C320.248,23.708 321.436,24.392 323.704,24.392 C326.116,24.392 327.304,23.564 328.168,22.484 C329.212,21.188 329.644,17.624 329.644,14.708 C329.644,11.936 329.284,8.768 328.312,7.256 C327.52,6.032 326.188,5.132 323.668,5.132 C321.148,5.132 320.032,5.888 319.06,7.256 C318.232,8.444 317.764,11.936 317.764,14.78 C317.764,17.696 318.268,21.224 319.348,22.592 Z M358.768,3.476 C359.524,4.844 359.956,6.5 359.956,8.912 C359.956,11.108 359.596,12.764 359.02,13.844 C358.3,15.248 357.148,16.112 355.924,16.364 L361.576,29 L355.096,29 L350.416,17.66 L344.656,17.66 L344.656,29 L338.86,29 L338.86,0.488 L352.324,0.488 C355.492,0.488 357.688,1.568 358.768,3.476 Z M353.764,11.756 C354.016,11.18 354.16,10.172 354.16,9.416 C354.16,8.552 354.016,7.508 353.836,7.04 C353.476,6.104 352.504,5.6 351.064,5.6 L344.692,5.6 L344.692,12.836 L351.352,12.836 C352.504,12.836 353.44,12.44 353.764,11.756 Z" id="ABOUT-THE-AUTHOR"></path>
        </g>
    </g>
</svg>