<?xml version="1.0" encoding="UTF-8" standalone="no"?>
<svg width="253px" height="35px" viewBox="0 0 253 35" version="1.1" xmlns="http://www.w3.org/2000/svg" xmlns:xlink="http://www.w3.org/1999/xlink">
    <!-- Generator: Sketch 48.2 (47327) - http://www.bohemiancoding.com/sketch -->
    <title>Artboard</title>
    <desc>Created with Sketch.</desc>
    <defs></defs>
    <g id="Page-1" stroke="none" stroke-width="1" fill="none" fill-rule="evenodd" fill-opacity="0.922497736">
        <g id="Artboard" fill="#471B1B">
            <path d="M27.664,0.488 L27.664,29 L22.228,29 L22.228,10.532 L16.72,29 L10.96,29 L5.704,10.532 L5.704,29 L0.196,29 L0.196,0.488 L8.224,0.488 L13.984,21.044 L19.996,0.488 L27.664,0.488 Z M46.924,22.196 L37.744,22.196 L35.728,29 L29.716,29 L38.788,0.488 L46.492,0.488 L54.952,29 L48.868,29 L46.924,22.196 Z M39.328,17.336 L45.484,17.336 C45.16,15.932 43.216,9.272 43.072,8.66 C43,8.228 42.532,5.852 42.532,5.852 C42.532,5.852 42.028,8.264 41.92,8.696 C41.812,9.272 39.688,15.86 39.328,17.336 Z M76.552,0.488 L76.552,5.672 L68.812,5.672 L68.812,29 L62.836,29 L62.836,5.672 L55.096,5.672 L55.096,0.488 L76.552,0.488 Z M115.144,0.488 L115.144,29 L109.708,29 L109.708,10.532 L104.2,29 L98.44,29 L93.184,10.532 L93.184,29 L87.676,29 L87.676,0.488 L95.704,0.488 L101.464,21.044 L107.476,0.488 L115.144,0.488 Z M134.404,22.196 L125.224,22.196 L123.208,29 L117.196,29 L126.268,0.488 L133.972,0.488 L142.432,29 L136.348,29 L134.404,22.196 Z M130.011983,5.85208036 C130.008642,5.86807034 129.50764,8.26544111 129.4,8.696 C129.292,9.272 127.168,15.86 126.808,17.336 L132.964,17.336 C132.64,15.932 130.696,9.272 130.552,8.66 C130.480232,8.22939482 130.015018,5.86732279 130.012015,5.85207416 L130.011983,5.85208036 Z M164.536,3.476 C165.292,4.844 165.724,6.5 165.724,8.912 C165.724,11.108 165.364,12.764 164.788,13.844 C164.068,15.248 162.916,16.112 161.692,16.364 L167.344,29 L160.864,29 L156.184,17.66 L150.424,17.66 L150.424,29 L144.628,29 L144.628,0.488 L158.092,0.488 C161.26,0.488 163.456,1.568 164.536,3.476 Z M159.532,11.756 C159.784,11.18 159.928,10.172 159.928,9.416 C159.928,8.552 159.784,7.508 159.604,7.04 C159.244,6.104 158.272,5.6 156.832,5.6 L150.46,5.6 L150.46,12.836 L157.12,12.836 C158.272,12.836 159.208,12.44 159.532,11.756 Z M190.672,24.68 C189.772,26.336 188.008,27.596 186.46,28.136 C186.892,28.532 187.432,28.892 187.936,29.18 C188.548,29.576 189.196,29.864 189.7,30.008 L186.352,34.184 C185.704,33.968 184.048,32.96 182.536,31.916 C181.204,31.016 179.836,29.864 179.296,29.252 C176.128,29 172.6,27.884 170.836,24.752 C169.36,22.16 168.82,18.74 168.82,14.636 C168.82,10.82 169.432,7.328 170.836,4.952 C172.492,2.18 175.444,0.128 180.772,0.128 C186.028,0.128 189.16,1.82 190.888,4.772 C192.112,6.86 192.724,10.532 192.724,14.564 C192.724,18.704 192.004,22.232 190.672,24.68 Z M176.416,22.592 C177.316,23.744 178.504,24.464 180.808,24.464 C183.22,24.464 184.444,23.6 185.272,22.556 C186.352,21.224 186.748,17.552 186.748,14.708 C186.748,12.08 186.46,8.948 185.416,7.256 C184.66,6.068 183.292,5.096 180.772,5.096 C178.36,5.096 177.208,5.888 176.236,7.148 C175.264,8.408 174.868,11.972 174.868,14.78 C174.868,17.66 175.372,21.26 176.416,22.592 Z M217.24,0.488 L217.24,20.972 C217.24,26.516 212.92,29.36 206.44,29.36 C200.104,29.36 195.64,26.732 195.64,20.72 L195.64,0.488 L201.544,0.488 L201.544,20.216 C201.544,22.844 203.236,24.392 206.512,24.392 C209.464,24.392 211.336,22.88 211.336,20.252 L211.336,0.488 L217.24,0.488 Z M227.356,0.488 L227.356,29 L221.344,29 L221.344,0.488 L227.356,0.488 Z M245.86,13.16 C250.144,14.456 252.628,16.688 252.628,21.26 C252.628,26.228 249.208,29.396 242.008,29.396 C234.664,29.396 231.82,27.128 230.92,23.528 C230.668,22.52 230.632,20.864 230.632,20.432 L236.572,20.432 C236.572,20.828 236.716,22.052 236.896,22.484 C237.508,24.032 238.984,24.608 241.972,24.608 C245.392,24.608 246.616,23.528 246.616,21.512 C246.616,19.388 245.428,18.38 242.224,17.408 C241.18,17.084 239.38,16.472 238.084,16.04 C233.44,14.564 230.704,12.296 230.704,7.832 C230.704,3.224 234.232,0.164 241.36,0.164 C247.732,0.164 250.72,2.612 251.764,6.176 C252.016,7.04 252.232,8.264 252.232,9.02 L246.256,9.02 C246.256,8.696 246.184,7.868 245.968,7.256 C245.428,5.816 244.168,5.024 241.288,5.024 C237.76,5.024 236.752,5.96 236.752,7.616 C236.752,9.596 238.012,10.532 241.828,11.72 C243.088,12.116 244.888,12.764 245.86,13.16 Z" id="MAT-MARQUIS"></path>
        </g>
    </g>
</svg>